PathFileType	4	(X/Y/Z)	1H_rest_fast_right.trc
DataRate	CameraRate	NumFrames	NumMarkers	Units	OrigDataRate	OrigDataStartFrame	OrigNumFrames
250.00	250.00	14	18	mm	250.00	25444	29078
Frame#	Time	c7	r_should	l_should	clavicle	r_upa	r_elb_l	r_elb_m	r_low	r_wri_l	r_wri_m	r_met	l_upa	l_elb_l	l_elb_m	l_low	l_wri_l	l_wri_m	l_met
	X1	Y1	Z1	X2	Y2	Z2	X3	Y3	Z3	X4	Y4	Z4	X5	Y5	Z5	X6	Y6	Z6	X7	Y7	Z7	X8	Y8	Z8	X9	Y9	Z9	X10	Y10	Z10	X11	Y11	Z11	X12	Y12	Z12	X13	Y13	Z13	X14	Y14	Z14	X15	Y15	Z15	X16	Y16	Z16	X17	Y17	Z17	X18	Y18	Z18
25444	101.77200	618.14008	1417.72131	264.88940	691.65472	1365.23071	397.51877	651.14941	1381.50513	86.04093	752.22510	1288.20813	227.61145	746.69885	1171.03113	474.02072	753.23218	1103.35205	493.45306	691.73676	1053.33679	448.78082	823.12274	1109.65662	369.31622	833.88171	1134.50989	302.92609	838.62201	1060.22205	291.83066	907.20325	1146.89355	247.95152	659.89587	1187.94727	14.25567	680.83014	1079.23914	10.85096	625.20636	1042.73779	70.80800	721.44006	913.20026	15.90114	751.11322	842.12665	47.82996	684.11224	818.35339	30.76348	780.01782	755.90839	22.56227
25445	101.77600	618.09485	1417.72717	264.88373	691.57867	1365.26843	397.54022	651.11017	1381.50500	86.04649	752.21088	1288.25635	227.61429	746.56616	1171.03564	474.11084	753.17438	1103.30054	493.55252	691.67059	1053.33167	448.96530	823.17255	1109.20715	369.33844	833.94427	1133.81885	302.84415	838.54736	1060.04224	292.22745	907.24011	1146.16675	247.99484	659.88635	1187.95276	14.26662	680.83142	1079.24841	10.85071	625.22034	1042.74609	70.82440	721.44141	913.20868	15.89956	751.13647	842.15027	47.83559	684.13403	818.35919	30.78080	780.03003	755.92352	22.55579
25446	101.78000	618.04224	1417.74512	264.87918	691.49438	1365.30920	397.55438	651.06982	1381.51794	86.05272	752.19434	1288.31555	227.62614	746.42395	1171.04187	474.21213	753.12115	1103.25269	493.65445	691.61560	1053.36902	449.19446	823.27240	1108.74292	369.38116	834.03699	1133.10669	302.77847	838.56616	1059.18237	292.26056	907.28796	1145.37817	248.05095	659.87805	1187.97485	14.26696	680.83179	1079.26550	10.85660	625.23615	1042.78809	70.85530	721.44678	913.22467	15.89974	751.18445	842.19440	47.86171	684.17310	818.40894	30.81543	780.04639	755.94202	22.55771
25447	101.78400	617.98694	1417.76257	264.87488	691.40588	1365.34692	397.57379	651.02661	1381.53601	86.05616	752.17114	1288.37195	227.64355	746.27435	1171.05884	474.32059	753.05762	1103.20581	493.77454	691.58337	1053.42529	449.45190	823.38654	1108.25317	369.43286	834.12299	1132.35730	302.71188	838.60767	1058.10303	292.23846	907.34949	1144.53979	248.09569	659.87537	1187.99646	14.27547	680.83447	1079.28857	10.85914	625.26508	1042.84070	70.89164	721.46411	913.24829	15.89880	751.23944	842.25085	47.88715	684.21863	818.47443	30.84175	780.06537	755.96326	22.56498
25448	101.78800	617.92395	1417.77368	264.86679	691.31219	1365.38733	397.59744	650.98431	1381.55981	86.05285	752.14423	1288.42346	227.66208	746.12024	1171.07422	474.43768	752.98492	1103.16187	493.90482	691.55798	1053.47449	449.68784	823.47815	1107.72644	369.47934	834.21008	1131.56689	302.64328	838.51135	1057.72595	292.60043	907.40576	1143.64246	248.15002	659.87756	1188.02319	14.28169	680.83905	1079.30994	10.86523	625.28967	1042.88757	70.90968	721.49200	913.27679	15.89703	751.28827	842.29529	47.90609	684.26514	818.53351	30.83400	780.09143	755.98395	22.57198
25449	101.79200	617.85681	1417.78784	264.85980	691.22589	1365.42004	397.61710	650.93433	1381.58289	86.05161	752.11169	1288.47668	227.68161	745.95850	1171.09070	474.56110	752.90924	1103.11133	494.03412	691.52441	1053.49109	449.87714	823.53601	1107.15808	369.48642	834.30560	1130.74072	302.57770	838.47937	1056.98389	292.79242	907.47583	1142.69214	248.20511	659.87909	1188.05054	14.28287	680.84326	1079.33301	10.86721	625.28015	1042.92639	70.89281	721.52435	913.31177	15.89834	751.30847	842.31683	47.90642	684.30017	818.57037	30.79994	780.12146	756.00592	22.58324
25450	101.79600	617.78754	1417.80164	264.86469	691.14301	1365.44189	397.64243	650.87891	1381.59900	86.05771	752.08051	1288.52844	227.69508	745.79236	1171.10339	474.68347	752.82898	1103.05823	494.15256	691.48480	1053.45984	450.05035	823.54608	1106.52881	369.46808	834.40131	1129.88916	302.53058	838.44910	1056.13684	292.95169	907.56091	1141.70056	248.25453	659.88049	1188.06885	14.29197	680.85010	1079.35217	10.87202	625.26593	1042.92346	70.86298	721.55426	913.33838	15.89745	751.29968	842.30823	47.89466	684.31482	818.57501	30.75566	780.15710	756.02771	22.59205
25451	101.80000	617.72040	1417.80225	264.87708	691.06836	1365.45410	397.67172	650.81293	1381.60754	86.07333	752.04816	1288.57727	227.70058	745.62445	1171.11035	474.80984	752.74908	1103.00940	494.26532	691.45087	1053.39490	450.23447	823.52631	1105.84766	369.45557	834.49890	1128.99451	302.48651	838.41956	1055.23730	293.13608	907.65259	1140.65552	248.30167	659.87170	1188.08215	14.29985	680.85431	1079.36670	10.87628	625.25293	1042.88599	70.83580	721.58063	913.35736	15.89758	751.28522	842.28961	47.87270	684.32086	818.54718	30.71395	780.19299	756.05078	22.59883
25452	101.80400	617.65204	1417.79419	264.89859	691.00269	1365.45508	397.69199	650.73407	1381.60974	86.09563	752.01379	1288.62378	227.70143	745.46814	1171.10779	474.93182	752.66510	1102.96387	494.37891	691.39642	1053.33459	450.44946	823.53589	1105.15735	369.47675	834.63037	1128.06226	302.44363	838.40833	1054.28577	293.32578	907.75189	1139.56360	248.35722	659.85187	1188.09546	14.30896	680.85046	1079.38159	10.88142	625.23395	1042.85864	70.82178	721.59967	913.37659	15.89750	751.28802	842.28741	47.85326	684.33533	818.50958	30.68997	780.22675	756.07513	22.60572
25453	101.80800	617.58563	1417.78760	264.91858	690.94635	1365.45642	397.71194	650.64215	1381.60925	86.11241	751.97363	1288.66907	227.69707	745.31995	1171.10986	475.04602	752.57825	1102.91772	494.47937	691.32568	1053.30151	450.69424	823.59198	1104.47974	369.52820	834.76355	1127.10266	302.40002	838.38000	1053.28491	293.54465	907.86182	1138.41846	248.40417	659.82520	1188.10291	14.32678	680.84229	1079.39783	10.88771	625.22992	1042.84558	70.83566	721.61572	913.39014	15.90615	751.32129	842.30963	47.84729	684.36566	818.49072	30.69745	780.26855	756.10437	22.60826
25454	101.81200	617.52191	1417.78601	264.92496	690.90515	1365.45288	397.72562	650.55591	1381.61255	86.12253	751.93707	1288.70947	227.68735	745.17920	1171.10461	475.15411	752.49481	1102.86548	494.57526	691.26196	1053.30310	450.94949	823.71014	1103.80212	369.59540	834.90601	1126.07703	302.34866	838.31421	1052.23315	293.73358	907.97760	1137.21753	248.45009	659.79578	1188.10803	14.34042	680.83521	1079.41406	10.90018	625.24542	1042.85413	70.85498	721.63690	913.40173	15.91780	751.38519	842.36035	47.85868	684.41974	818.51520	30.73496	780.31995	756.13147	22.61121
25455	101.81600	617.45911	1417.78809	264.93335	690.87769	1365.45557	397.73154	650.46619	1381.61841	86.12977	751.89850	1288.74329	227.67326	745.03870	1171.08252	475.25543	752.40717	1102.80444	494.67642	691.19922	1053.33643	451.20535	823.61664	1102.98657	369.54422	835.05011	1125.01672	302.31015	838.25305	1051.14490	293.91879	908.09985	1135.97192	248.50891	659.76282	1188.11975	14.34626	680.82880	1079.43347	10.90767	625.27893	1042.88721	70.88660	721.66632	913.42212	15.92857	751.47882	842.43658	47.88200	684.49072	818.57794	30.76819	780.38110	756.16534	22.61260
25456	101.82000	617.39789	1417.79578	264.94724	690.85669	1365.45801	397.73227	650.37976	1381.62988	86.13299	751.85413	1288.76221	227.65802	744.89551	1171.05273	475.35104	752.31287	1102.73230	494.78043	691.12579	1053.37720	451.45190	823.20532	1101.98267	369.33728	835.17957	1123.90271	302.27380	838.20428	1050.00427	294.14249	908.20947	1134.65833	248.56604	659.72729	1188.13354	14.34836	680.81427	1079.44934	10.91004	625.30615	1042.92798	70.92097	721.70172	913.45990	15.92461	751.56982	842.51624	47.89888	684.56165	818.65082	30.78510	780.44800	756.20978	22.61263
25457	101.82400	617.33868	1417.80188	264.95267	690.84357	1365.45630	397.72653	650.30109	1381.64795	86.13020	751.80304	1288.77612	227.64684	744.75824	1171.01941	475.44629	752.20636	1102.65417	494.88730	691.03076	1053.41187	451.67484	823.22827	1101.15222	369.33829	835.28583	1122.74988	302.23441	838.15375	1048.82227	294.38043	908.26208	1133.04077	248.46913	659.68585	1188.15259	14.34549	680.79205	1079.46729	10.91535	625.29553	1042.96375	70.93073	721.73608	913.50604	15.91523	751.63281	842.56134	47.91056	684.62415	818.70868	30.77633	780.51794	756.25812	22.61070
